<svg id="SvgjsSvg1001" width="288" height="288" xmlns="http://www.w3.org/2000/svg" version="1.1" xmlns:xlink="http://www.w3.org/1999/xlink" xmlns:svgjs="http://svgjs.com/svgjs"><defs id="SvgjsDefs1002"></defs><g id="SvgjsG1008"><svg xmlns="http://www.w3.org/2000/svg" viewBox="0 0 64 64" width="288" height="288"><path d="M28.598 55.655c-.939 0-2.125-.318-4.5-1.626a38.277 38.277 0 0 1-3.9-2.471l-5.515 1.654a1 1 0 0 1-.889-.16 20.838 20.838 0 0 1-6.717-8.669 1 1 0 0 1 .857-1.381 23.406 23.406 0 0 0 8.365-2.116 22.969 22.969 0 0 0 2.65-1.455 25.473 25.473 0 0 1 3.722-2.166 23.192 23.192 0 0 1 2.458-.91c.075-.02.201-.054.364-.102l.167-.052c.161-.05.31-.097.665-.19.337-.087.79-.197 1.35-.312a12.684 12.684 0 0 1 3.877-.316 8.33 8.33 0 0 1 1.716.309c.742.222 1.407.493 2.05.754a20.157 20.157 0 0 0 2.117.77 9.647 9.647 0 0 0 1.9.343c.637.061 1.43.137 1.774.979a1.993 1.993 0 0 1-.187 1.737 4.256 4.256 0 0 1-4.813 2.185c-.276-.042-.527-.09-.758-.144a9.314 9.314 0 0 0 1.078.668 9.412 9.412 0 0 0 4.6 1.083l3.02-.001a1 1 0 0 1 .994.898 4.143 4.143 0 0 1-.405 2.356c-.95 1.842-3.33 2.778-6.012 2.398a111.52 111.52 0 0 1-6.3 4.565 6.719 6.719 0 0 1-3.5 1.366 4.658 4.658 0 0 1-.228.006Zm-8.211-6.198a1 1 0 0 1 .595.197 36.237 36.237 0 0 0 4.08 2.623c2.6 1.431 3.315 1.392 3.658 1.375a4.791 4.791 0 0 0 2.49-1.03 109.901 109.901 0 0 0 6.53-4.75.995.995 0 0 1 .808-.194c1.924.374 3.738-.162 4.312-1.274a1.765 1.765 0 0 0 .132-.338h-1.939a11.35 11.35 0 0 1-9.552-4.84 9.416 9.416 0 0 0-1.285.001c-.18.013-.33.028-.43.04a1 1 0 0 1-.23-1.987c.12-.014.3-.032.522-.048a11.622 11.622 0 0 1 2.094.047l.019.002a7.64 7.64 0 0 1 2.137.597 8.381 8.381 0 0 0 2.085.605 3.006 3.006 0 0 0 1.094.073 2.772 2.772 0 0 0 1.525-1.017 11.408 11.408 0 0 1-2.148-.4 22.116 22.116 0 0 1-2.32-.84c-.627-.256-1.219-.496-1.87-.691a6.286 6.286 0 0 0-1.308-.232 10.877 10.877 0 0 0-3.311.283c-.518.106-.937.208-1.248.288-.305.08-.432.12-.57.162l-.191.06c-.19.056-.337.096-.397.111a21.826 21.826 0 0 0-2.176.808 23.957 23.957 0 0 0-3.425 2 24.98 24.98 0 0 1-2.925 1.61 25.22 25.22 0 0 1-7.648 2.167 18.82 18.82 0 0 0 5.106 6.283L20.1 49.5a.997.997 0 0 1 .287-.042Z" fill="#c4a767" class="svgShape color000000-0 selectable"></path><path d="M51 46H39.59a1 1 0 0 1 0-2H50V13H17v29.12a1 1 0 0 1-2 0V12a1 1 0 0 1 1-1h35a1 1 0 0 1 1 1v33a1 1 0 0 1-1 1Z" fill="#c4a767" class="svgShape color000000-1 selectable"></path><path d="M37.5 21h-8a1 1 0 0 1-1-1v-8a1 1 0 0 1 1-1h8a1 1 0 0 1 1 1v8a1 1 0 0 1-1 1Zm-7-2h6v-6h-6Z" fill="#c4a767" class="svgShape color000000-2 selectable"></path></svg></g></svg>